<mxfile host="Electron" modified="2023-05-30T19:04:31.489Z" agent="Mozilla/5.0 (Windows NT 10.0; Win64; x64) AppleWebKit/537.36 (KHTML, like Gecko) draw.io/21.2.8 Chrome/112.0.5615.165 Electron/24.2.0 Safari/537.36" etag="xtqnpYkPoWGpWgxQhY1O" version="21.2.8" type="device">
  <diagram name="Page-1" id="5djotg3BYbdR64tGl3rD">
    <mxGraphModel dx="2271" dy="832" grid="1" gridSize="10" guides="1" tooltips="1" connect="1" arrows="1" fold="1" page="1" pageScale="1" pageWidth="850" pageHeight="1100" math="0" shadow="0">
      <root>
        <mxCell id="0" />
        <mxCell id="1" parent="0" />
        <mxCell id="Nsy4iq3d1Hhg4RcDAwvX-22" value="" style="rounded=0;whiteSpace=wrap;html=1;fillColor=#f5f5f5;fontColor=#333333;strokeColor=#666666;" parent="1" vertex="1">
          <mxGeometry x="-100" y="185" width="220" height="200" as="geometry" />
        </mxCell>
        <mxCell id="Nsy4iq3d1Hhg4RcDAwvX-9" value="" style="rounded=0;whiteSpace=wrap;html=1;" parent="1" vertex="1">
          <mxGeometry x="-100" y="390" width="220" height="60" as="geometry" />
        </mxCell>
        <mxCell id="G_X2aF6QY7qZGDWIiVCL-1" value="UART1" style="rounded=0;whiteSpace=wrap;html=1;" parent="1" vertex="1">
          <mxGeometry x="670" y="140" width="120" height="30" as="geometry" />
        </mxCell>
        <mxCell id="G_X2aF6QY7qZGDWIiVCL-2" value="UART2" style="rounded=0;whiteSpace=wrap;html=1;" parent="1" vertex="1">
          <mxGeometry x="670" y="170" width="120" height="30" as="geometry" />
        </mxCell>
        <mxCell id="G_X2aF6QY7qZGDWIiVCL-3" value="I2C1" style="rounded=0;whiteSpace=wrap;html=1;" parent="1" vertex="1">
          <mxGeometry x="670" y="220" width="120" height="30" as="geometry" />
        </mxCell>
        <mxCell id="G_X2aF6QY7qZGDWIiVCL-4" value="I2C2" style="rounded=0;whiteSpace=wrap;html=1;" parent="1" vertex="1">
          <mxGeometry x="670" y="250" width="120" height="30" as="geometry" />
        </mxCell>
        <mxCell id="G_X2aF6QY7qZGDWIiVCL-5" value="SPI1" style="rounded=0;whiteSpace=wrap;html=1;" parent="1" vertex="1">
          <mxGeometry x="670" y="300" width="120" height="30" as="geometry" />
        </mxCell>
        <mxCell id="G_X2aF6QY7qZGDWIiVCL-6" value="SPI2" style="rounded=0;whiteSpace=wrap;html=1;" parent="1" vertex="1">
          <mxGeometry x="670" y="330" width="120" height="30" as="geometry" />
        </mxCell>
        <mxCell id="G_X2aF6QY7qZGDWIiVCL-7" value="QSPI" style="rounded=0;whiteSpace=wrap;html=1;" parent="1" vertex="1">
          <mxGeometry x="670" y="360" width="120" height="30" as="geometry" />
        </mxCell>
        <mxCell id="G_X2aF6QY7qZGDWIiVCL-8" value="PWM1" style="rounded=0;whiteSpace=wrap;html=1;" parent="1" vertex="1">
          <mxGeometry x="670" y="410" width="120" height="30" as="geometry" />
        </mxCell>
        <mxCell id="G_X2aF6QY7qZGDWIiVCL-9" value="PWM2" style="rounded=0;whiteSpace=wrap;html=1;" parent="1" vertex="1">
          <mxGeometry x="670" y="440" width="120" height="30" as="geometry" />
        </mxCell>
        <mxCell id="G_X2aF6QY7qZGDWIiVCL-10" value="PWM3" style="rounded=0;whiteSpace=wrap;html=1;" parent="1" vertex="1">
          <mxGeometry x="670" y="470" width="120" height="30" as="geometry" />
        </mxCell>
        <mxCell id="G_X2aF6QY7qZGDWIiVCL-11" value="PWM4" style="rounded=0;whiteSpace=wrap;html=1;" parent="1" vertex="1">
          <mxGeometry x="670" y="500" width="120" height="30" as="geometry" />
        </mxCell>
        <mxCell id="G_X2aF6QY7qZGDWIiVCL-12" value="CAN1" style="rounded=0;whiteSpace=wrap;html=1;" parent="1" vertex="1">
          <mxGeometry x="670" y="550" width="120" height="30" as="geometry" />
        </mxCell>
        <mxCell id="G_X2aF6QY7qZGDWIiVCL-13" value="CAN2" style="rounded=0;whiteSpace=wrap;html=1;" parent="1" vertex="1">
          <mxGeometry x="670" y="580" width="120" height="30" as="geometry" />
        </mxCell>
        <mxCell id="G_X2aF6QY7qZGDWIiVCL-14" value="ADC1" style="rounded=0;whiteSpace=wrap;html=1;" parent="1" vertex="1">
          <mxGeometry x="670" y="630" width="120" height="30" as="geometry" />
        </mxCell>
        <mxCell id="G_X2aF6QY7qZGDWIiVCL-17" value="UART Service" style="rounded=0;whiteSpace=wrap;html=1;" parent="1" vertex="1">
          <mxGeometry x="550" y="140" width="120" height="60" as="geometry" />
        </mxCell>
        <mxCell id="G_X2aF6QY7qZGDWIiVCL-18" value="I2C Service" style="rounded=0;whiteSpace=wrap;html=1;" parent="1" vertex="1">
          <mxGeometry x="550" y="220" width="120" height="60" as="geometry" />
        </mxCell>
        <mxCell id="G_X2aF6QY7qZGDWIiVCL-19" value="SPI Service" style="rounded=0;whiteSpace=wrap;html=1;" parent="1" vertex="1">
          <mxGeometry x="550" y="300" width="120" height="90" as="geometry" />
        </mxCell>
        <mxCell id="G_X2aF6QY7qZGDWIiVCL-20" value="PWM Service" style="rounded=0;whiteSpace=wrap;html=1;" parent="1" vertex="1">
          <mxGeometry x="550" y="410" width="120" height="120" as="geometry" />
        </mxCell>
        <mxCell id="G_X2aF6QY7qZGDWIiVCL-21" value="CAN Service" style="rounded=0;whiteSpace=wrap;html=1;" parent="1" vertex="1">
          <mxGeometry x="550" y="550" width="120" height="60" as="geometry" />
        </mxCell>
        <mxCell id="G_X2aF6QY7qZGDWIiVCL-22" value="ADC Service" style="rounded=0;whiteSpace=wrap;html=1;" parent="1" vertex="1">
          <mxGeometry x="550" y="630" width="120" height="50" as="geometry" />
        </mxCell>
        <mxCell id="G_X2aF6QY7qZGDWIiVCL-23" value="USB Service" style="rounded=0;whiteSpace=wrap;html=1;" parent="1" vertex="1">
          <mxGeometry x="550" y="40" width="120" height="60" as="geometry" />
        </mxCell>
        <mxCell id="G_X2aF6QY7qZGDWIiVCL-25" value="UartTask" style="shape=process;whiteSpace=wrap;html=1;backgroundOutline=1;fillColor=#f5f5f5;strokeColor=#666666;fontColor=#333333;" parent="1" vertex="1">
          <mxGeometry x="430" y="140" width="120" height="60" as="geometry" />
        </mxCell>
        <mxCell id="G_X2aF6QY7qZGDWIiVCL-26" value="I2cTask" style="shape=process;whiteSpace=wrap;html=1;backgroundOutline=1;fillColor=#f5f5f5;fontColor=#333333;strokeColor=#666666;" parent="1" vertex="1">
          <mxGeometry x="430" y="220" width="120" height="60" as="geometry" />
        </mxCell>
        <mxCell id="G_X2aF6QY7qZGDWIiVCL-27" value="SpiTask" style="shape=process;whiteSpace=wrap;html=1;backgroundOutline=1;fillColor=#f5f5f5;fontColor=#333333;strokeColor=#666666;" parent="1" vertex="1">
          <mxGeometry x="430" y="300" width="120" height="90" as="geometry" />
        </mxCell>
        <mxCell id="G_X2aF6QY7qZGDWIiVCL-28" value="PwmTask" style="shape=process;whiteSpace=wrap;html=1;backgroundOutline=1;fillColor=#f5f5f5;fontColor=#333333;strokeColor=#666666;" parent="1" vertex="1">
          <mxGeometry x="430" y="410" width="120" height="120" as="geometry" />
        </mxCell>
        <mxCell id="G_X2aF6QY7qZGDWIiVCL-29" value="CanTask" style="shape=process;whiteSpace=wrap;html=1;backgroundOutline=1;fillColor=#f5f5f5;fontColor=#333333;strokeColor=#666666;" parent="1" vertex="1">
          <mxGeometry x="430" y="550" width="120" height="60" as="geometry" />
        </mxCell>
        <mxCell id="G_X2aF6QY7qZGDWIiVCL-30" value="AdcTask" style="shape=process;whiteSpace=wrap;html=1;backgroundOutline=1;fillColor=#f5f5f5;fontColor=#333333;strokeColor=#666666;" parent="1" vertex="1">
          <mxGeometry x="430" y="630" width="120" height="50" as="geometry" />
        </mxCell>
        <mxCell id="G_X2aF6QY7qZGDWIiVCL-33" value="Post Request" style="shape=step;perimeter=stepPerimeter;whiteSpace=wrap;html=1;fixedSize=1;size=10.000000000000227;fillColor=#f5f5f5;strokeColor=#666666;fontColor=#333333;" parent="1" vertex="1">
          <mxGeometry x="400" y="375" width="120" height="15" as="geometry" />
        </mxCell>
        <mxCell id="G_X2aF6QY7qZGDWIiVCL-34" value="Post Request" style="shape=step;perimeter=stepPerimeter;whiteSpace=wrap;html=1;fixedSize=1;size=10.000000000000227;fillColor=#f5f5f5;strokeColor=#666666;fontColor=#333333;" parent="1" vertex="1">
          <mxGeometry x="400" y="185" width="120" height="15" as="geometry" />
        </mxCell>
        <mxCell id="G_X2aF6QY7qZGDWIiVCL-35" value="Post Request" style="shape=step;perimeter=stepPerimeter;whiteSpace=wrap;html=1;fixedSize=1;size=10.000000000000227;fillColor=#f5f5f5;strokeColor=#666666;fontColor=#333333;" parent="1" vertex="1">
          <mxGeometry x="400" y="265" width="120" height="15" as="geometry" />
        </mxCell>
        <mxCell id="G_X2aF6QY7qZGDWIiVCL-36" value="Post Request" style="shape=step;perimeter=stepPerimeter;whiteSpace=wrap;html=1;fixedSize=1;size=10.000000000000227;fillColor=#f5f5f5;strokeColor=#666666;fontColor=#333333;" parent="1" vertex="1">
          <mxGeometry x="400" y="515" width="120" height="15" as="geometry" />
        </mxCell>
        <mxCell id="G_X2aF6QY7qZGDWIiVCL-37" value="Post Request" style="shape=step;perimeter=stepPerimeter;whiteSpace=wrap;html=1;fixedSize=1;size=10.000000000000227;fillColor=#f5f5f5;strokeColor=#666666;fontColor=#333333;" parent="1" vertex="1">
          <mxGeometry x="400" y="595" width="120" height="15" as="geometry" />
        </mxCell>
        <mxCell id="G_X2aF6QY7qZGDWIiVCL-38" value="Post Request" style="shape=step;perimeter=stepPerimeter;whiteSpace=wrap;html=1;fixedSize=1;size=10.000000000000227;fillColor=#f5f5f5;strokeColor=#666666;fontColor=#333333;" parent="1" vertex="1">
          <mxGeometry x="400" y="665" width="120" height="15" as="geometry" />
        </mxCell>
        <mxCell id="G_X2aF6QY7qZGDWIiVCL-39" value="USB Interrupt" style="shape=step;perimeter=stepPerimeter;whiteSpace=wrap;html=1;fixedSize=1;size=10.000000000000227;fillColor=#f8cecc;strokeColor=#b85450;" parent="1" vertex="1">
          <mxGeometry x="300" y="265" width="110" height="15" as="geometry" />
        </mxCell>
        <mxCell id="G_X2aF6QY7qZGDWIiVCL-40" value="USB Interrupt" style="shape=step;perimeter=stepPerimeter;whiteSpace=wrap;html=1;fixedSize=1;size=10.000000000000227;fillColor=#f8cecc;strokeColor=#b85450;" parent="1" vertex="1">
          <mxGeometry x="300" y="375" width="110" height="15" as="geometry" />
        </mxCell>
        <mxCell id="G_X2aF6QY7qZGDWIiVCL-41" value="USB Interrupt" style="shape=step;perimeter=stepPerimeter;whiteSpace=wrap;html=1;fixedSize=1;size=10.000000000000227;fillColor=#f8cecc;strokeColor=#b85450;" parent="1" vertex="1">
          <mxGeometry x="300" y="515" width="110" height="15" as="geometry" />
        </mxCell>
        <mxCell id="G_X2aF6QY7qZGDWIiVCL-42" value="USB Interrupt" style="shape=step;perimeter=stepPerimeter;whiteSpace=wrap;html=1;fixedSize=1;size=10.000000000000227;fillColor=#f8cecc;strokeColor=#b85450;" parent="1" vertex="1">
          <mxGeometry x="300" y="595" width="110" height="15" as="geometry" />
        </mxCell>
        <mxCell id="G_X2aF6QY7qZGDWIiVCL-43" value="USB Interrupt" style="shape=step;perimeter=stepPerimeter;whiteSpace=wrap;html=1;fixedSize=1;size=10.000000000000227;fillColor=#f8cecc;strokeColor=#b85450;" parent="1" vertex="1">
          <mxGeometry x="300" y="665" width="110" height="15" as="geometry" />
        </mxCell>
        <mxCell id="G_X2aF6QY7qZGDWIiVCL-44" value="Get Request" style="shape=step;perimeter=stepPerimeter;whiteSpace=wrap;html=1;fixedSize=1;size=10.000000000000227;fillColor=#f5f5f5;strokeColor=#666666;fontColor=#333333;direction=west;" parent="1" vertex="1">
          <mxGeometry x="300" y="62.5" width="120" height="15" as="geometry" />
        </mxCell>
        <mxCell id="G_X2aF6QY7qZGDWIiVCL-48" value="Reveice Data from USB" style="rounded=0;whiteSpace=wrap;html=1;fillColor=#f8cecc;strokeColor=#b85450;" parent="1" vertex="1">
          <mxGeometry x="10" y="405" width="90" height="30" as="geometry" />
        </mxCell>
        <mxCell id="G_X2aF6QY7qZGDWIiVCL-49" value="USB Interrupt" style="shape=step;perimeter=stepPerimeter;whiteSpace=wrap;html=1;fixedSize=1;size=10.000000000000227;fillColor=#f8cecc;strokeColor=#b85450;" parent="1" vertex="1">
          <mxGeometry x="300" y="185" width="110" height="15" as="geometry" />
        </mxCell>
        <mxCell id="Nsy4iq3d1Hhg4RcDAwvX-1" value="FrameDriver" style="rounded=0;whiteSpace=wrap;html=1;" parent="1" vertex="1">
          <mxGeometry x="-80" y="280" width="90" height="30" as="geometry" />
        </mxCell>
        <mxCell id="Nsy4iq3d1Hhg4RcDAwvX-8" style="edgeStyle=orthogonalEdgeStyle;rounded=0;orthogonalLoop=1;jettySize=auto;html=1;entryX=0.5;entryY=0;entryDx=0;entryDy=0;" parent="1" source="Nsy4iq3d1Hhg4RcDAwvX-2" target="Nsy4iq3d1Hhg4RcDAwvX-4" edge="1">
          <mxGeometry relative="1" as="geometry" />
        </mxCell>
        <mxCell id="Nsy4iq3d1Hhg4RcDAwvX-2" value="TF_Integration" style="rounded=0;whiteSpace=wrap;html=1;" parent="1" vertex="1">
          <mxGeometry x="-80" y="340" width="90" height="30" as="geometry" />
        </mxCell>
        <mxCell id="Nsy4iq3d1Hhg4RcDAwvX-12" value="Register Listeners" style="edgeStyle=orthogonalEdgeStyle;rounded=0;orthogonalLoop=1;jettySize=auto;html=1;exitX=0.438;exitY=0.983;exitDx=0;exitDy=0;entryX=0.75;entryY=0;entryDx=0;entryDy=0;exitPerimeter=0;" parent="1" source="ZHzaPNyj-4bgb9aYFhHR-6" target="Nsy4iq3d1Hhg4RcDAwvX-3" edge="1">
          <mxGeometry x="0.0927" y="5" relative="1" as="geometry">
            <mxPoint x="30" y="290" as="targetPoint" />
            <mxPoint as="offset" />
          </mxGeometry>
        </mxCell>
        <mxCell id="Nsy4iq3d1Hhg4RcDAwvX-3" value="TinyFrame Lib" style="rounded=0;whiteSpace=wrap;html=1;fillColor=#d5e8d4;strokeColor=#82b366;" parent="1" vertex="1">
          <mxGeometry x="-80" y="310" width="180" height="30" as="geometry" />
        </mxCell>
        <mxCell id="Nsy4iq3d1Hhg4RcDAwvX-4" value="Send Data to USB" style="rounded=0;whiteSpace=wrap;html=1;" parent="1" vertex="1">
          <mxGeometry x="-80" y="405" width="90" height="30" as="geometry" />
        </mxCell>
        <mxCell id="Nsy4iq3d1Hhg4RcDAwvX-18" style="edgeStyle=orthogonalEdgeStyle;rounded=0;orthogonalLoop=1;jettySize=auto;html=1;exitX=0.5;exitY=0;exitDx=0;exitDy=0;" parent="1" source="Nsy4iq3d1Hhg4RcDAwvX-5" edge="1">
          <mxGeometry relative="1" as="geometry">
            <mxPoint x="190" y="330" as="targetPoint" />
            <Array as="points">
              <mxPoint x="55" y="330" />
              <mxPoint x="110" y="330" />
            </Array>
          </mxGeometry>
        </mxCell>
        <mxCell id="Nsy4iq3d1Hhg4RcDAwvX-5" value="FrameDriver" style="rounded=0;whiteSpace=wrap;html=1;fillColor=#f8cecc;strokeColor=#b85450;" parent="1" vertex="1">
          <mxGeometry x="10" y="340" width="90" height="30" as="geometry" />
        </mxCell>
        <mxCell id="Nsy4iq3d1Hhg4RcDAwvX-7" value="" style="endArrow=classic;html=1;rounded=0;exitX=0.5;exitY=0;exitDx=0;exitDy=0;entryX=0.5;entryY=1;entryDx=0;entryDy=0;" parent="1" source="G_X2aF6QY7qZGDWIiVCL-48" target="Nsy4iq3d1Hhg4RcDAwvX-5" edge="1">
          <mxGeometry width="50" height="50" relative="1" as="geometry">
            <mxPoint x="50" y="400" as="sourcePoint" />
            <mxPoint x="100" y="350" as="targetPoint" />
          </mxGeometry>
        </mxCell>
        <mxCell id="Nsy4iq3d1Hhg4RcDAwvX-11" value="FrameRouter" style="rounded=0;whiteSpace=wrap;html=1;" parent="1" vertex="1">
          <mxGeometry x="130" y="240" width="90" height="30" as="geometry" />
        </mxCell>
        <mxCell id="Nsy4iq3d1Hhg4RcDAwvX-14" value="" style="endArrow=classic;html=1;rounded=0;exitX=1.023;exitY=0.514;exitDx=0;exitDy=0;exitPerimeter=0;" parent="1" source="Nsy4iq3d1Hhg4RcDAwvX-3" edge="1">
          <mxGeometry width="50" height="50" relative="1" as="geometry">
            <mxPoint x="130" y="340" as="sourcePoint" />
            <mxPoint x="190" y="325" as="targetPoint" />
          </mxGeometry>
        </mxCell>
        <mxCell id="Nsy4iq3d1Hhg4RcDAwvX-15" value="Listener&lt;br&gt;Callbacks" style="edgeLabel;html=1;align=center;verticalAlign=middle;resizable=0;points=[];labelBackgroundColor=#FFCCCC;" parent="Nsy4iq3d1Hhg4RcDAwvX-14" vertex="1" connectable="0">
          <mxGeometry x="-0.1391" y="1" relative="1" as="geometry">
            <mxPoint x="9" y="1" as="offset" />
          </mxGeometry>
        </mxCell>
        <mxCell id="ZHzaPNyj-4bgb9aYFhHR-3" value="msg service callback" style="edgeStyle=orthogonalEdgeStyle;rounded=0;orthogonalLoop=1;jettySize=auto;html=1;exitX=0.5;exitY=0;exitDx=0;exitDy=0;entryX=0.5;entryY=0;entryDx=0;entryDy=0;" edge="1" parent="1" source="Nsy4iq3d1Hhg4RcDAwvX-16" target="ZHzaPNyj-4bgb9aYFhHR-4">
          <mxGeometry x="-0.2208" relative="1" as="geometry">
            <mxPoint as="offset" />
          </mxGeometry>
        </mxCell>
        <mxCell id="Nsy4iq3d1Hhg4RcDAwvX-16" value="UartTask" style="shape=process;whiteSpace=wrap;html=1;backgroundOutline=1;" parent="1" vertex="1">
          <mxGeometry x="200" y="295" width="70" height="30" as="geometry" />
        </mxCell>
        <mxCell id="Nsy4iq3d1Hhg4RcDAwvX-17" value="I2cTask" style="shape=process;whiteSpace=wrap;html=1;backgroundOutline=1;" parent="1" vertex="1">
          <mxGeometry x="200" y="325" width="70" height="30" as="geometry" />
        </mxCell>
        <mxCell id="Nsy4iq3d1Hhg4RcDAwvX-19" value="UsbTask" style="shape=process;whiteSpace=wrap;html=1;backgroundOutline=1;fillColor=#f5f5f5;strokeColor=#666666;fontColor=#333333;" parent="1" vertex="1">
          <mxGeometry x="440" y="50" width="120" height="60" as="geometry" />
        </mxCell>
        <mxCell id="Nsy4iq3d1Hhg4RcDAwvX-20" value="UsbTask" style="shape=process;whiteSpace=wrap;html=1;backgroundOutline=1;fillColor=#f5f5f5;strokeColor=#666666;fontColor=#333333;" parent="1" vertex="1">
          <mxGeometry x="-100" y="165" width="220" height="20" as="geometry" />
        </mxCell>
        <mxCell id="ZHzaPNyj-4bgb9aYFhHR-5" style="edgeStyle=orthogonalEdgeStyle;rounded=0;orthogonalLoop=1;jettySize=auto;html=1;" edge="1" parent="1" source="ZHzaPNyj-4bgb9aYFhHR-4" target="Nsy4iq3d1Hhg4RcDAwvX-1">
          <mxGeometry relative="1" as="geometry" />
        </mxCell>
        <mxCell id="ZHzaPNyj-4bgb9aYFhHR-4" value="UsbService" style="rounded=0;whiteSpace=wrap;html=1;" vertex="1" parent="1">
          <mxGeometry x="-80" y="220" width="90" height="30" as="geometry" />
        </mxCell>
        <mxCell id="ZHzaPNyj-4bgb9aYFhHR-6" value="FrameRouter" style="rounded=0;whiteSpace=wrap;html=1;" vertex="1" parent="1">
          <mxGeometry x="10" y="220" width="90" height="30" as="geometry" />
        </mxCell>
        <mxCell id="ZHzaPNyj-4bgb9aYFhHR-7" value="String containing json" style="rounded=0;whiteSpace=wrap;html=1;" vertex="1" parent="1">
          <mxGeometry x="-630" y="240" width="120" height="60" as="geometry" />
        </mxCell>
        <mxCell id="ZHzaPNyj-4bgb9aYFhHR-8" value="TF msg type specifies interface scope" style="rounded=0;whiteSpace=wrap;html=1;" vertex="1" parent="1">
          <mxGeometry x="-630" y="180" width="120" height="60" as="geometry" />
        </mxCell>
      </root>
    </mxGraphModel>
  </diagram>
</mxfile>
